<?xml version="1.0" encoding="UTF-8" standalone="no"?>
<svg
   xmlns:dc="http://purl.org/dc/elements/1.1/"
   xmlns:cc="http://creativecommons.org/ns#"
   xmlns:rdf="http://www.w3.org/1999/02/22-rdf-syntax-ns#"
   xmlns:svg="http://www.w3.org/2000/svg"
   xmlns="http://www.w3.org/2000/svg"
   xmlns:sodipodi="http://sodipodi.sourceforge.net/DTD/sodipodi-0.dtd"
   xmlns:inkscape="http://www.inkscape.org/namespaces/inkscape"
   width="128"
   height="128"
   viewBox="0 0 33.866671 33.866668"
   version="1.1"
   id="svg227"
   inkscape:version="1.0.2-2 (e86c870879, 2021-01-15)"
   sodipodi:docname="circle-dash-cross.svg">
  <defs
     id="defs221" />
  <sodipodi:namedview
     id="base"
     pagecolor="#ffffff"
     bordercolor="#666666"
     borderopacity="1.0"
     inkscape:pageopacity="0.0"
     inkscape:pageshadow="2"
     inkscape:zoom="5.6568543"
     inkscape:cx="53.183648"
     inkscape:cy="78.992934"
     inkscape:document-units="mm"
     inkscape:current-layer="svg227"
     inkscape:document-rotation="0"
     showgrid="false"
     fit-margin-top="0"
     fit-margin-left="0"
     fit-margin-right="0"
     fit-margin-bottom="0"
     units="px"
     inkscape:window-width="2560"
     inkscape:window-height="1377"
     inkscape:window-x="1912"
     inkscape:window-y="-8"
     inkscape:window-maximized="1" />
  <metadata
     id="metadata224">
    <rdf:RDF>
      <cc:Work
         rdf:about="">
        <dc:format>image/svg+xml</dc:format>
        <dc:type
           rdf:resource="http://purl.org/dc/dcmitype/StillImage" />
        <dc:title></dc:title>
      </cc:Work>
    </rdf:RDF>
  </metadata>
  <path
     style="fill:#000000;stroke-width:0.176777"
     d="M 12.416365,101.68905 C 10.796594,99.498795 8.7850289,96.264429 7.4261751,93.665399 -3.7581829,72.273485 -1.9744811,46.490769 12.046606,26.87886 l 1.42834,-1.997882 2.781369,2.777294 2.781369,2.777295 -1.290109,1.872237 C 4.6490263,51.316721 4.7254325,77.078465 17.936484,96.002012 c 0.523867,0.750389 0.952485,1.427523 0.952485,1.504741 0,0.07722 -1.22464,1.363127 -2.721421,2.857577 l -2.721421,2.71717 z"
     id="path703"
     transform="scale(0.26458333)" />
  <path
     style="fill:#000000;stroke-width:0.176777"
     d="m 27.655974,16.253789 -2.763271,-2.767325 1.461745,-1.078478 C 35.475454,5.6784855 46.047865,1.6673322 58.001574,0.40112444 61.322583,0.04934356 68.773572,0.14456189 71.921977,0.57901727 77.000264,1.2797814 81.970725,2.4923425 86.228386,4.0691158 c 2.738317,1.0141023 7.75242,3.390236 10.040962,4.7583121 1.873444,1.119933 5.813782,3.7676171 6.373402,4.2825681 l 0.40358,0.371358 -2.69954,2.703752 c -1.484737,1.487063 -2.750538,2.703751 -2.812887,2.703751 -0.06235,0 -0.97813,-0.586635 -2.035071,-1.303633 C 83.677003,9.5656308 69.314578,6.3855911 55.128191,8.6466064 47.127156,9.9218052 39.597579,12.880391 32.830029,17.40819 l -2.410785,1.612925 z"
     id="path705"
     transform="scale(0.26458333)" />
  <path
     style="fill:#000000;stroke-width:0.176777"
     d="m 111.73879,100.33665 c -1.48154,-1.483859 -2.69371,-2.760047 -2.69371,-2.83598 0,-0.07593 0.30508,-0.552294 0.67796,-1.058586 4.9693,-6.747289 8.53972,-15.810278 9.85871,-25.024916 0.43551,-3.042509 0.52494,-10.012197 0.17045,-13.283884 -0.63129,-5.826293 -2.14075,-11.584941 -4.37885,-16.705398 -1.39636,-3.194692 -3.77874,-7.409477 -5.54215,-9.804898 l -0.82145,-1.115855 2.79226,-2.796354 2.79226,-2.796355 1.18975,1.627605 c 14.91006,20.397279 16.11009,48.43148 3.00735,70.255144 -1.31424,2.188957 -4.08147,6.231517 -4.26835,6.235477 -0.0498,10e-4 -1.30269,-1.21215 -2.78423,-2.696 z"
     id="path707"
     transform="scale(0.26458333)" />
  <path
     style="fill:#000000;stroke-width:0.176777"
     d="m 60.512021,127.7717 c -11.92814,-0.65065 -23.863219,-4.82444 -33.44713,-11.69674 -1.093806,-0.78433 -1.988738,-1.47478 -1.988738,-1.53432 0,-0.0595 1.226042,-1.33238 2.724538,-2.82854 l 2.724538,-2.72029 1.120355,0.79853 c 7.555165,5.38489 17.113408,8.95625 26.664588,9.96301 3.273593,0.34506 10.087857,0.25299 13.128805,-0.17738 8.968692,-1.2693 16.892431,-4.3151 24.319338,-9.34809 l 1.827641,-1.23854 2.757154,2.75716 2.75716,2.75715 -0.43055,0.36658 c -0.9539,0.81219 -6.041626,4.1037 -8.031937,5.19627 -6.647704,3.64921 -14.081095,6.09461 -21.879436,7.19778 -2.100155,0.29709 -8.362295,0.74144 -9.410039,0.66772 -0.194455,-0.0137 -1.470784,-0.0858 -2.836287,-0.1603 z"
     id="path709"
     transform="scale(0.26458333)" />
</svg>
