<?xml version="1.0" encoding="UTF-8" standalone="no"?>
<svg
   xmlns:dc="http://purl.org/dc/elements/1.1/"
   xmlns:cc="http://creativecommons.org/ns#"
   xmlns:rdf="http://www.w3.org/1999/02/22-rdf-syntax-ns#"
   xmlns:svg="http://www.w3.org/2000/svg"
   xmlns="http://www.w3.org/2000/svg"
   xmlns:sodipodi="http://sodipodi.sourceforge.net/DTD/sodipodi-0.dtd"
   xmlns:inkscape="http://www.inkscape.org/namespaces/inkscape"
   width="128"
   height="128"
   viewBox="0 0 33.866671 33.866668"
   version="1.1"
   id="svg227"
   inkscape:version="1.0.2-2 (e86c870879, 2021-01-15)"
   sodipodi:docname="circle-small.svg">
  <defs
     id="defs221" />
  <sodipodi:namedview
     id="base"
     pagecolor="#ffffff"
     bordercolor="#666666"
     borderopacity="1.0"
     inkscape:pageopacity="0.0"
     inkscape:pageshadow="2"
     inkscape:zoom="5.6568543"
     inkscape:cx="51.298387"
     inkscape:cy="77.494516"
     inkscape:document-units="mm"
     inkscape:current-layer="svg227"
     inkscape:document-rotation="0"
     showgrid="false"
     fit-margin-top="0"
     fit-margin-left="0"
     fit-margin-right="0"
     fit-margin-bottom="0"
     units="px"
     inkscape:window-width="2560"
     inkscape:window-height="1377"
     inkscape:window-x="1912"
     inkscape:window-y="-8"
     inkscape:window-maximized="1" />
  <metadata
     id="metadata224">
    <rdf:RDF>
      <cc:Work
         rdf:about="">
        <dc:format>image/svg+xml</dc:format>
        <dc:type
           rdf:resource="http://purl.org/dc/dcmitype/StillImage" />
        <dc:title></dc:title>
      </cc:Work>
    </rdf:RDF>
  </metadata>
  <path
     style="fill:#000000;stroke-width:0.176777"
     d="m 61.939083,79.790266 c -3.335462,-0.464334 -6.430652,-1.987329 -8.933541,-4.395768 -2.119195,-2.039226 -3.429339,-4.184791 -4.298788,-7.03994 -0.422735,-1.3882 -0.474837,-1.848995 -0.485643,-4.29507 -0.01033,-2.337091 0.04627,-2.942514 0.384863,-4.116865 0.76554,-2.655161 2.029167,-4.904574 3.831772,-6.821029 6.619858,-7.037961 17.972945,-6.573497 23.976135,0.980883 1.252843,1.576571 2.482792,4.018298 3.012019,5.979535 0.547426,2.028691 0.550567,5.772892 0.0065,7.778175 -0.791166,2.916138 -2.432319,5.697123 -4.50784,7.638671 -1.490193,1.394004 -2.452783,2.048334 -4.257339,2.893979 -2.570597,1.204622 -6.078618,1.766277 -8.728161,1.397429 z m 4.602331,-8.142934 c 5.631292,-1.897044 7.348108,-8.912348 3.236084,-13.223377 -4.559874,-4.780551 -12.549338,-2.320338 -13.718968,4.224511 -0.693532,3.880772 1.685691,7.81908 5.450824,9.022697 1.434257,0.458495 3.631182,0.448092 5.03206,-0.02383 z"
     id="path884"
     transform="scale(0.26458333)" />
</svg>
