<?xml version="1.0" encoding="UTF-8" standalone="no"?>
<svg
   xmlns:dc="http://purl.org/dc/elements/1.1/"
   xmlns:cc="http://creativecommons.org/ns#"
   xmlns:rdf="http://www.w3.org/1999/02/22-rdf-syntax-ns#"
   xmlns:svg="http://www.w3.org/2000/svg"
   xmlns="http://www.w3.org/2000/svg"
   xmlns:sodipodi="http://sodipodi.sourceforge.net/DTD/sodipodi-0.dtd"
   xmlns:inkscape="http://www.inkscape.org/namespaces/inkscape"
   width="128"
   height="128"
   viewBox="0 0 33.866671 33.866668"
   version="1.1"
   id="svg227"
   inkscape:version="1.0.2-2 (e86c870879, 2021-01-15)"
   sodipodi:docname="cross-dash.svg">
  <defs
     id="defs221" />
  <sodipodi:namedview
     id="base"
     pagecolor="#ffffff"
     bordercolor="#666666"
     borderopacity="1.0"
     inkscape:pageopacity="0.0"
     inkscape:pageshadow="2"
     inkscape:zoom="5.6568543"
     inkscape:cx="51.454513"
     inkscape:cy="76.022478"
     inkscape:document-units="mm"
     inkscape:current-layer="svg227"
     inkscape:document-rotation="0"
     showgrid="false"
     fit-margin-top="0"
     fit-margin-left="0"
     fit-margin-right="0"
     fit-margin-bottom="0"
     units="px"
     inkscape:window-width="2560"
     inkscape:window-height="1377"
     inkscape:window-x="1912"
     inkscape:window-y="-8"
     inkscape:window-maximized="1" />
  <metadata
     id="metadata224">
    <rdf:RDF>
      <cc:Work
         rdf:about="">
        <dc:format>image/svg+xml</dc:format>
        <dc:type
           rdf:resource="http://purl.org/dc/dcmitype/StillImage" />
        <dc:title></dc:title>
      </cc:Work>
    </rdf:RDF>
  </metadata>
  <g
     id="g634">
    <path
       style="fill:#000000;stroke-width:0.176777"
       d="M 30.064675,35.629145 16.011904,21.575541 18.795859,18.791586 21.579814,16.00763 35.676335,30.104151 49.772856,44.20067 47.036094,46.941711 c -1.505218,1.507571 -2.777685,2.74104 -2.827704,2.74104 -0.05002,0 -6.414691,-6.324123 -14.143715,-14.053606 z"
       id="path622"
       transform="scale(0.26458333)" />
    <path
       style="fill:#000000;stroke-width:0.176777"
       d="M 80.975221,46.941711 78.238461,44.20067 92.334982,30.104151 106.4315,16.00763 l 2.78396,2.783956 2.78395,2.783955 -14.052768,14.053604 c -7.729025,7.729483 -14.093697,14.053606 -14.143716,14.053606 -0.05002,0 -1.322486,-1.233469 -2.827705,-2.74104 z"
       id="path624"
       transform="scale(0.26458333)" />
    <path
       style="fill:#000000;stroke-width:0.176777"
       d="M 92.290072,97.854541 78.2373,83.800937 l 2.783956,-2.783955 2.783955,-2.783955 14.096521,14.09652 14.096518,14.096523 -2.73676,2.74104 c -1.50522,1.50757 -2.77768,2.74104 -2.8277,2.74104 -0.05,0 -6.41469,-6.32413 -14.143718,-14.053609 z"
       id="path626"
       transform="scale(0.26458333)" />
    <path
       style="fill:#000000;stroke-width:0.176777"
       d="m 18.749819,109.1671 -2.736767,-2.74105 15.510734,-15.510729 15.510733,-15.510734 2.783982,2.783981 2.78398,2.78398 -15.467041,15.467799 c -8.506874,8.507293 -15.507951,15.467803 -15.557949,15.467803 -0.05,0 -1.322451,-1.23347 -2.827672,-2.74105 z"
       id="path628"
       transform="scale(0.26458333)" />
  </g>
</svg>
