<?xml version="1.0" encoding="UTF-8" standalone="no"?>
<svg
   xmlns:dc="http://purl.org/dc/elements/1.1/"
   xmlns:cc="http://creativecommons.org/ns#"
   xmlns:rdf="http://www.w3.org/1999/02/22-rdf-syntax-ns#"
   xmlns:svg="http://www.w3.org/2000/svg"
   xmlns="http://www.w3.org/2000/svg"
   xmlns:sodipodi="http://sodipodi.sourceforge.net/DTD/sodipodi-0.dtd"
   xmlns:inkscape="http://www.inkscape.org/namespaces/inkscape"
   width="128"
   height="128"
   viewBox="0 0 33.866669 33.866666"
   version="1.1"
   id="svg227"
   inkscape:version="1.0.2-2 (e86c870879, 2021-01-15)"
   sodipodi:docname="plus-nail.svg">
  <defs
     id="defs221" />
  <sodipodi:namedview
     id="base"
     pagecolor="#ffffff"
     bordercolor="#666666"
     borderopacity="1.0"
     inkscape:pageopacity="0.0"
     inkscape:pageshadow="2"
     inkscape:zoom="2.8284271"
     inkscape:cx="20.058928"
     inkscape:cy="0.78436276"
     inkscape:document-units="mm"
     inkscape:current-layer="nail_plus"
     inkscape:document-rotation="0"
     showgrid="false"
     fit-margin-top="0"
     fit-margin-left="0"
     fit-margin-right="0"
     fit-margin-bottom="0"
     units="px"
     inkscape:window-width="2560"
     inkscape:window-height="1377"
     inkscape:window-x="1912"
     inkscape:window-y="-8"
     inkscape:window-maximized="1" />
  <metadata
     id="metadata224">
    <rdf:RDF>
      <cc:Work
         rdf:about="">
        <dc:format>image/svg+xml</dc:format>
        <dc:type
           rdf:resource="http://purl.org/dc/dcmitype/StillImage" />
        <dc:title></dc:title>
      </cc:Work>
    </rdf:RDF>
  </metadata>
  <g
     style="fill:#ffffff"
     id="nail_plus"
     transform="matrix(0.26458333,0,0,0.26458333,-101.6,-109.10416)">
    <rect
       style="display:none;opacity:0.5;fill:#666666;fill-opacity:1;stroke:none"
       id="use3129"
       y="412.36218"
       x="384"
       height="128"
       width="128" />
    <path
       inkscape:connector-curvature="0"
       style="display:none;fill:#ffffff;fill-opacity:1;stroke:none"
       id="rect3021"
       transform="translate(0,412.36218)"
       d="M 436,-3.8281269e-7 444,7.9999996 V 32 l 4,16 4,-16 V 7.9999996 L 460,-3.8281269e-7 Z M 384,52 v 24 l 8,-8 h 24 l 16,-4 -16,-4 h -24 z m 128,0 -8,8 h -24 l -16,4 16,4 h 24 l 8,8 z m -64,28 -4,16 v 24 l -8,8 h 24 l -8,-8 V 96 Z" />
    <path
       style="fill:#000000;stroke-width:0.178571"
       d="m 384.00743,476.34282 10e-4,-11.78419 3.96379,3.97321 3.9638,3.97322 h 12.10805 12.10804 l 7.59375,1.89878 c 4.17657,1.04433 7.5692,1.92333 7.5392,1.95333 -0.03,0.03 -3.60721,0.94341 -7.94934,2.02979 l -7.8948,1.97524 h -11.83193 -11.83194 l -3.88541,3.88241 -3.88542,3.8824 z"
       id="path421" />
    <path
       style="fill:#000000;stroke-width:0.178571"
       d="m 446.05303,451.95626 -1.91982,-7.71297 0.005,-12.05208 0.005,-12.05208 -3.88241,-3.88542 -3.8824,-3.88542 h 11.69338 11.69338 l -3.8824,3.88542 -3.88241,3.88542 v 11.83193 11.83193 l -1.97524,7.8948 c -1.08638,4.34213 -1.99248,7.91204 -2.01356,7.93312 -0.0211,0.0211 -0.90225,-3.43252 -1.95815,-7.67465 z"
       id="path423" />
    <path
       style="fill:#000000;stroke-width:0.178571"
       d="m 511.99631,476.32496 -10e-4,11.78419 -3.96379,-3.97321 -3.9638,-3.97322 h -12.10804 -12.10805 l -7.59375,-1.89878 c -4.17656,-1.04433 -7.5692,-1.92333 -7.5392,-1.95333 0.03,-0.03 3.60721,-0.94341 7.94935,-2.02979 l 7.89479,-1.97524 h 11.83193 11.83194 l 3.88542,-3.88241 3.88541,-3.8824 z"
       id="path421-3" />
    <path
       style="fill:#000000;stroke-width:0.178571"
       d="m 449.99735,500.77199 1.91982,7.71297 -0.005,12.05209 -0.005,12.05208 3.88241,3.88542 3.88241,3.88541 H 447.9786 436.28522 l 3.8824,-3.88541 3.88241,-3.88542 v -11.83194 -11.83193 l 1.97524,-7.89479 c 1.08638,-4.34214 1.99248,-7.91204 2.01356,-7.93312 0.0211,-0.0211 0.90225,3.43251 1.95815,7.67464 z"
       id="path423-0" />
  </g>
</svg>
