<?xml version="1.0" encoding="UTF-8" standalone="no"?>
<svg
   xmlns:dc="http://purl.org/dc/elements/1.1/"
   xmlns:cc="http://creativecommons.org/ns#"
   xmlns:rdf="http://www.w3.org/1999/02/22-rdf-syntax-ns#"
   xmlns:svg="http://www.w3.org/2000/svg"
   xmlns="http://www.w3.org/2000/svg"
   xmlns:sodipodi="http://sodipodi.sourceforge.net/DTD/sodipodi-0.dtd"
   xmlns:inkscape="http://www.inkscape.org/namespaces/inkscape"
   width="128"
   height="128"
   viewBox="0 0 33.866669 33.866666"
   version="1.1"
   id="svg227"
   inkscape:version="1.0.2-2 (e86c870879, 2021-01-15)"
   sodipodi:docname="plus-dash.svg">
  <defs
     id="defs221" />
  <sodipodi:namedview
     id="base"
     pagecolor="#ffffff"
     bordercolor="#666666"
     borderopacity="1.0"
     inkscape:pageopacity="0.0"
     inkscape:pageshadow="2"
     inkscape:zoom="5.6"
     inkscape:cx="78.107125"
     inkscape:cy="80.428593"
     inkscape:document-units="mm"
     inkscape:current-layer="svg227"
     inkscape:document-rotation="0"
     showgrid="false"
     fit-margin-top="0"
     fit-margin-left="0"
     fit-margin-right="0"
     fit-margin-bottom="0"
     units="px"
     inkscape:window-width="2560"
     inkscape:window-height="1377"
     inkscape:window-x="1912"
     inkscape:window-y="-8"
     inkscape:window-maximized="1" />
  <metadata
     id="metadata224">
    <rdf:RDF>
      <cc:Work
         rdf:about="">
        <dc:format>image/svg+xml</dc:format>
        <dc:type
           rdf:resource="http://purl.org/dc/dcmitype/StillImage" />
        <dc:title></dc:title>
      </cc:Work>
    </rdf:RDF>
  </metadata>
  <g
     style="fill:#ffffff"
     id="plus"
     transform="matrix(0.26458333,0,0,0.26458333,-135.46666,-109.10416)">
    <path
       inkscape:connector-curvature="0"
       style="fill:#ffffff;fill-opacity:1;stroke:none"
       id="path3235"
       transform="translate(0,412.36218)"
       d="M 572,-3.8281269e-7 V 40 h 8 V -3.8281269e-7 Z M 512,60 v 8 h 40 v -8 z m 88,0 v 8 h 40 V 60 Z M 572,83.999999 V 128 h 8 V 83.999999 Z" />
    <path
       style="fill:#000000;stroke-width:0.178571"
       d="M 60.071411,19.982164 V 0.07144963 h 3.928571 3.928572 V 19.982164 39.892878 h -3.928572 -3.928571 z"
       id="path398"
       transform="translate(511.99998,412.36218)" />
    <path
       style="fill:#000000;stroke-width:0.178571"
       d="M 88.107125,64.000021 V 60.07145 h 19.910715 19.91071 v 3.928571 3.928572 H 108.01784 88.107125 Z"
       id="path400"
       transform="translate(511.99998,412.36218)" />
    <path
       style="fill:#000000;stroke-width:0.178571"
       d="M 60.071411,105.96431 V 84.000021 h 3.928571 3.928572 v 21.964289 21.96428 h -3.928572 -3.928571 z"
       id="path402"
       transform="translate(511.99998,412.36218)" />
    <path
       style="fill:#000000;stroke-width:0.178571"
       d="M 0.0714109,64.000021 V 60.07145 H 19.982125 39.892839 v 3.928571 3.928572 H 19.982125 0.0714109 Z"
       id="path404"
       transform="translate(511.99998,412.36218)" />
  </g>
</svg>
