<?xml version="1.0" encoding="UTF-8" standalone="no"?>
<svg
   xmlns:dc="http://purl.org/dc/elements/1.1/"
   xmlns:cc="http://creativecommons.org/ns#"
   xmlns:rdf="http://www.w3.org/1999/02/22-rdf-syntax-ns#"
   xmlns:svg="http://www.w3.org/2000/svg"
   xmlns="http://www.w3.org/2000/svg"
   xmlns:sodipodi="http://sodipodi.sourceforge.net/DTD/sodipodi-0.dtd"
   xmlns:inkscape="http://www.inkscape.org/namespaces/inkscape"
   width="128"
   height="128"
   viewBox="0 0 33.866671 33.866668"
   version="1.1"
   id="svg227"
   inkscape:version="1.0.2-2 (e86c870879, 2021-01-15)"
   sodipodi:docname="cross-nail.svg">
  <defs
     id="defs221" />
  <sodipodi:namedview
     id="base"
     pagecolor="#ffffff"
     bordercolor="#666666"
     borderopacity="1.0"
     inkscape:pageopacity="0.0"
     inkscape:pageshadow="2"
     inkscape:zoom="5.6568543"
     inkscape:cx="51.28459"
     inkscape:cy="75.852553"
     inkscape:document-units="mm"
     inkscape:current-layer="svg227"
     inkscape:document-rotation="0"
     showgrid="false"
     fit-margin-top="0"
     fit-margin-left="0"
     fit-margin-right="0"
     fit-margin-bottom="0"
     units="px"
     inkscape:window-width="2560"
     inkscape:window-height="1377"
     inkscape:window-x="1912"
     inkscape:window-y="-8"
     inkscape:window-maximized="1" />
  <metadata
     id="metadata224">
    <rdf:RDF>
      <cc:Work
         rdf:about="">
        <dc:format>image/svg+xml</dc:format>
        <dc:type
           rdf:resource="http://purl.org/dc/dcmitype/StillImage" />
        <dc:title></dc:title>
      </cc:Work>
    </rdf:RDF>
  </metadata>
  <g
     id="g663">
    <path
       style="fill:#000000;stroke-width:0.176777"
       d="m 45.188306,48.085573 -6.715001,-4.049154 -8.487795,-8.485145 -8.487793,-8.485147 -5.436709,-0.04617 -5.436709,-0.04616 8.220942,-8.219404 8.220942,-8.219403 v 5.478695 5.478695 l 8.551779,8.574339 8.551782,8.574339 3.999364,6.686215 c 2.199651,3.677416 3.999366,6.720185 3.999366,6.761708 0,0.186585 -0.646807,-0.184385 -6.980168,-4.003408 z"
       id="path651"
       transform="scale(0.26458333)" />
    <path
       style="fill:#000000;stroke-width:0.176777"
       d="m 75.856551,52.060068 c 0,-0.05742 1.824981,-3.139966 4.055515,-6.850097 l 4.055515,-6.745689 8.407242,-8.396195 8.407237,-8.396196 v -5.656846 -5.656847 l 8.30933,8.307799 8.30932,8.3078 -5.4367,0.04616 -5.4367,0.04616 -8.573673,8.549811 -8.573669,8.549812 -6.686214,3.999364 c -3.677417,2.199652 -6.720186,3.999366 -6.761708,3.999366 -0.04152,0 -0.0755,-0.04698 -0.0755,-0.104408 z"
       id="path653"
       transform="scale(0.26458333)" />
    <path
       style="fill:#000000;stroke-width:0.176777"
       d="m 100.78206,112.00337 v -5.65549 L 92.318675,97.861928 83.855286,89.37597 79.849703,82.679402 c -2.203071,-3.683112 -3.973473,-6.728678 -3.934227,-6.767924 0.03925,-0.03925 3.084812,1.731156 6.767924,3.934227 l 6.696568,4.005583 8.485281,8.461468 8.485281,8.461474 5.61346,0.0461 5.61347,0.0461 -8.3977,8.3962 -8.3977,8.3962 z"
       id="path655"
       transform="scale(0.26458333)" />
    <path
       style="fill:#000000;stroke-width:0.176777"
       d="m 18.669995,109.08739 -8.307799,-8.30932 h 5.656847 5.656846 l 8.396196,-8.407245 8.396195,-8.407242 6.774111,-4.072575 c 3.725761,-2.239916 6.811102,-4.035584 6.856312,-3.990374 0.04521,0.04521 -1.720309,3.095656 -3.923378,6.778768 l -4.005581,6.696568 -8.549812,8.57367 -8.549811,8.57367 -0.04616,5.4367 -0.04616,5.4367 z"
       id="path657"
       transform="scale(0.26458333)" />
  </g>
</svg>
