<?xml version="1.0" encoding="UTF-8" standalone="no"?>
<svg
   xmlns:dc="http://purl.org/dc/elements/1.1/"
   xmlns:cc="http://creativecommons.org/ns#"
   xmlns:rdf="http://www.w3.org/1999/02/22-rdf-syntax-ns#"
   xmlns:svg="http://www.w3.org/2000/svg"
   xmlns="http://www.w3.org/2000/svg"
   xmlns:sodipodi="http://sodipodi.sourceforge.net/DTD/sodipodi-0.dtd"
   xmlns:inkscape="http://www.inkscape.org/namespaces/inkscape"
   width="128"
   height="128"
   viewBox="0 0 33.866671 33.866668"
   version="1.1"
   id="svg227"
   inkscape:version="1.0.2-2 (e86c870879, 2021-01-15)"
   sodipodi:docname="tri-narrow.svg">
  <defs
     id="defs221" />
  <sodipodi:namedview
     id="base"
     pagecolor="#ffffff"
     bordercolor="#666666"
     borderopacity="1.0"
     inkscape:pageopacity="0.0"
     inkscape:pageshadow="2"
     inkscape:zoom="5.6568543"
     inkscape:cx="51.440817"
     inkscape:cy="76.71589"
     inkscape:document-units="mm"
     inkscape:current-layer="svg227"
     inkscape:document-rotation="0"
     showgrid="false"
     fit-margin-top="0"
     fit-margin-left="0"
     fit-margin-right="0"
     fit-margin-bottom="0"
     units="px"
     inkscape:window-width="2560"
     inkscape:window-height="1377"
     inkscape:window-x="1912"
     inkscape:window-y="-8"
     inkscape:window-maximized="1" />
  <metadata
     id="metadata224">
    <rdf:RDF>
      <cc:Work
         rdf:about="">
        <dc:format>image/svg+xml</dc:format>
        <dc:type
           rdf:resource="http://purl.org/dc/dcmitype/StillImage" />
        <dc:title></dc:title>
      </cc:Work>
    </rdf:RDF>
  </metadata>
  <path
     style="fill:#000000;stroke-width:0.176777"
     d="M 60.102875,20.058959 V 0.17158079 h 3.889087 3.889088 V 20.058959 39.946337 h -3.889088 -3.889087 z"
     id="path563"
     transform="scale(0.26458333)" />
  <path
     style="fill:#000000;stroke-width:0.176777"
     d="m 32.039575,119.35201 c -1.774396,-1.0349 -3.226175,-1.95445 -3.226175,-2.04346 0,-0.31326 19.669535,-34.228699 19.851215,-34.228699 0.101199,0 1.645763,0.843933 3.432362,1.875408 3.129568,1.806825 3.239633,1.889249 3.00974,2.253903 -0.131243,0.208172 -4.608235,7.955585 -9.948875,17.216478 -5.34064,9.26089 -9.751168,16.83123 -9.801173,16.82299 -0.05001,-0.008 -1.542698,-0.86173 -3.317094,-1.89662 z"
     id="path565"
     transform="scale(0.26458333)" />
  <path
     style="fill:#000000;stroke-width:0.176777"
     d="M 83.083845,104.87398 C 77.882191,95.861337 73.409403,88.11203 73.144315,87.653301 l -0.481977,-0.834054 3.384148,-1.945368 3.384147,-1.945368 2.318605,4.008951 c 8.690751,15.026618 17.425855,30.196668 17.464194,30.329658 0.0361,0.12519 -5.7997,3.65084 -6.495257,3.92405 -0.09723,0.0382 -4.432675,-7.30454 -9.63433,-16.31719 z"
     id="path567"
     transform="scale(0.26458333)" />
</svg>
