<?xml version="1.0" encoding="UTF-8" standalone="no"?>
<svg
   xmlns:dc="http://purl.org/dc/elements/1.1/"
   xmlns:cc="http://creativecommons.org/ns#"
   xmlns:rdf="http://www.w3.org/1999/02/22-rdf-syntax-ns#"
   xmlns:svg="http://www.w3.org/2000/svg"
   xmlns="http://www.w3.org/2000/svg"
   xmlns:sodipodi="http://sodipodi.sourceforge.net/DTD/sodipodi-0.dtd"
   xmlns:inkscape="http://www.inkscape.org/namespaces/inkscape"
   width="126.63426"
   height="126.61161"
   viewBox="0 0 33.505319 33.499323"
   version="1.1"
   id="svg227"
   inkscape:version="1.0.2-2 (e86c870879, 2021-01-15)"
   sodipodi:docname="circle-dash.svg">
  <defs
     id="defs221" />
  <sodipodi:namedview
     id="base"
     pagecolor="#ffffff"
     bordercolor="#666666"
     borderopacity="1.0"
     inkscape:pageopacity="0.0"
     inkscape:pageshadow="2"
     inkscape:zoom="5.6568543"
     inkscape:cx="50.726876"
     inkscape:cy="76.532261"
     inkscape:document-units="mm"
     inkscape:current-layer="svg227"
     inkscape:document-rotation="0"
     showgrid="false"
     fit-margin-top="0"
     fit-margin-left="0"
     fit-margin-right="0"
     fit-margin-bottom="0"
     units="px"
     inkscape:window-width="2560"
     inkscape:window-height="1377"
     inkscape:window-x="1912"
     inkscape:window-y="-8"
     inkscape:window-maximized="1" />
  <metadata
     id="metadata224">
    <rdf:RDF>
      <cc:Work
         rdf:about="">
        <dc:format>image/svg+xml</dc:format>
        <dc:type
           rdf:resource="http://purl.org/dc/dcmitype/StillImage" />
        <dc:title></dc:title>
      </cc:Work>
    </rdf:RDF>
  </metadata>
  <g
     id="g540"
     transform="translate(-0.08711579,-0.56207456)">
    <path
       style="fill:#000000;stroke-width:0.353553"
       d="m 0.32925652,57.200162 c 0,-0.08736 0.32993492,-1.868512 0.73318868,-3.958125 C 5.6952349,29.235468 24.267543,9.5336889 47.837597,3.6222652 50.001118,3.0796486 52.606545,2.5237793 53.62743,2.3870001 l 1.856155,-0.2486896 v 3.922264 c 0,3.9189865 -7.17e-4,3.922264 -0.85999,3.922264 -1.704039,0 -9.254299,2.1771715 -12.908835,3.7223555 C 24.900612,20.814421 12.081315,36.523121 8.6150524,54.265401 L 8.0106653,57.358993 H 4.1699611 c -2.1123876,0 -3.84070458,-0.07147 -3.84070458,-0.158831 z"
       id="path528"
       transform="scale(0.26458333)" />
    <path
       style="fill:#000000;stroke-width:0.353553"
       d="m 119.1232,56.689603 c 0,-1.451839 -2.1346,-9.005426 -3.52291,-12.466296 C 110.03401,30.347232 98.636238,18.966819 84.627029,13.297214 81.394703,11.989073 74.110472,9.9828385 72.593207,9.9828385 c -0.84176,0 -0.846166,-0.020459 -0.846166,-3.9292312 V 2.1243763 L 73.42642,2.3608951 C 76.607876,2.808962 82.346175,4.3116142 85.793019,5.5992587 107.42216,13.679299 123.12814,32.962343 126.7273,55.856391 l 0.23622,1.502602 h -3.92016 c -3.61083,0 -3.92016,-0.05282 -3.92016,-0.66939 z"
       id="path530"
       transform="scale(0.26458333)" />
    <path
       style="fill:#000000;stroke-width:0.353553"
       d="m 71.747041,124.91949 v -3.87075 l 2.032932,-0.40565 c 11.785484,-2.35164 21.323026,-7.38553 29.433317,-15.53483 2.23623,-2.24698 5.04884,-5.481879 6.25026,-7.188657 4.29092,-6.095833 7.72063,-14.010844 9.18789,-21.203562 l 0.63107,-3.093592 h 3.84051 3.8405 l -0.23622,1.502601 c -1.45849,9.277386 -5.5976,19.426335 -11.06181,27.12318 -2.89467,4.07741 -8.79946,10.2838 -12.6428,13.28855 -7.759657,6.06655 -17.506017,10.57265 -26.679455,12.33489 -1.652862,0.31752 -3.363176,0.65409 -3.800699,0.74794 -0.786908,0.1688 -0.795495,0.12886 -0.795495,-3.70012 z"
       id="path532"
       transform="scale(0.26458333)" />
    <path
       style="fill:#000000;stroke-width:0.353553"
       d="m 54.246148,128.54452 c -0.388908,-0.0826 -1.979899,-0.39479 -3.535533,-0.6937 -6.290313,-1.20862 -14.437944,-4.3979 -19.967271,-7.8159 C 18.40323,112.40676 9.3061556,101.56128 4.1201748,88.294914 2.9410154,85.278483 0.94883281,77.819724 0.55538028,74.948274 L 0.37371271,73.622449 H 4.2245515 8.07539 l 0.2276982,1.325825 c 1.3323402,7.757852 5.0251418,16.620122 9.6127258,23.069358 3.056342,4.296618 8.875973,10.116248 13.172587,13.172588 6.449238,4.58758 15.311507,8.28039 23.069359,9.61273 l 1.325825,0.2277 v 3.87306 c 0,2.13019 -0.119324,3.85461 -0.265165,3.83206 -0.145841,-0.0226 -0.583363,-0.10862 -0.972272,-0.19125 z"
       id="path534"
       transform="scale(0.26458333)" />
  </g>
</svg>
