<?xml version="1.0" encoding="UTF-8" standalone="no"?>
<svg
   xmlns:dc="http://purl.org/dc/elements/1.1/"
   xmlns:cc="http://creativecommons.org/ns#"
   xmlns:rdf="http://www.w3.org/1999/02/22-rdf-syntax-ns#"
   xmlns:svg="http://www.w3.org/2000/svg"
   xmlns="http://www.w3.org/2000/svg"
   xmlns:sodipodi="http://sodipodi.sourceforge.net/DTD/sodipodi-0.dtd"
   xmlns:inkscape="http://www.inkscape.org/namespaces/inkscape"
   width="128"
   height="128"
   viewBox="0 0 33.866671 33.866668"
   version="1.1"
   id="svg227"
   inkscape:version="1.0.2-2 (e86c870879, 2021-01-15)"
   sodipodi:docname="circle-half-horizontal.svg">
  <defs
     id="defs221" />
  <sodipodi:namedview
     id="base"
     pagecolor="#ffffff"
     bordercolor="#666666"
     borderopacity="1.0"
     inkscape:pageopacity="0.0"
     inkscape:pageshadow="2"
     inkscape:zoom="5.6568543"
     inkscape:cx="52.508493"
     inkscape:cy="79.058128"
     inkscape:document-units="mm"
     inkscape:current-layer="svg227"
     inkscape:document-rotation="0"
     showgrid="false"
     fit-margin-top="0"
     fit-margin-left="0"
     fit-margin-right="0"
     fit-margin-bottom="0"
     units="px"
     inkscape:window-width="2560"
     inkscape:window-height="1377"
     inkscape:window-x="1912"
     inkscape:window-y="-8"
     inkscape:window-maximized="1" />
  <metadata
     id="metadata224">
    <rdf:RDF>
      <cc:Work
         rdf:about="">
        <dc:format>image/svg+xml</dc:format>
        <dc:type
           rdf:resource="http://purl.org/dc/dcmitype/StillImage" />
        <dc:title></dc:title>
      </cc:Work>
    </rdf:RDF>
  </metadata>
  <path
     style="fill:#000000;stroke-width:0.176777"
     d="M 11.890935,100.93424 C 9.3607836,97.405769 6.9877518,93.172796 5.2188358,89.03267 -0.86028521,74.804565 -1.4847246,58.22336 3.5050793,43.526013 5.6351888,37.251826 9.0339414,30.759026 12.69871,25.962976 l 0.79042,-1.034415 2.715895,2.711655 c 1.493743,1.49141 2.715895,2.76307 2.715895,2.825911 0,0.06284 -0.709155,1.177497 -1.575901,2.477013 -4.845848,7.265403 -7.6943523,14.88793 -8.9753838,24.017901 -0.4341179,3.09398 -0.4324792,11.009388 0.00293,14.142136 1.2768458,9.186894 4.4459628,17.478127 9.4502258,24.72425 l 1.142891,1.654892 -2.716085,2.720331 c -1.493847,1.49618 -2.764801,2.72033 -2.824343,2.72033 -0.05954,0 -0.749985,-0.89493 -1.534316,-1.98874 z"
     id="path792"
     transform="scale(0.26458333)" />
  <path
     style="fill:#000000;stroke-width:0.176777"
     d="m 111.74993,100.20422 -2.71452,-2.718767 1.68638,-2.540341 c 5.26596,-7.932556 8.33766,-16.818749 9.15186,-26.475697 0.25658,-3.043232 0.12251,-8.945571 -0.26716,-11.762 -1.23086,-8.896125 -4.17707,-16.702087 -9.06786,-24.025206 l -1.51612,-2.270134 2.76559,-2.765587 c 2.63589,-2.635889 2.7777,-2.74912 3.02394,-2.414449 7.59731,10.325725 11.57286,20.54147 12.8193,32.940975 0.27336,2.719403 0.22693,9.349631 -0.0864,12.332965 -1.04499,9.950845 -4.50736,19.85762 -9.75413,27.909197 -1.4488,2.223294 -3.08071,4.507804 -3.2201,4.507804 -0.0585,0 -1.32784,-1.22344 -2.82082,-2.71876 z"
     id="path794"
     transform="scale(0.26458333)" />
</svg>
